<?xml version="1.0" standalone="no"?><!DOCTYPE svg PUBLIC "-//W3C//DTD SVG 1.1//EN" "http://www.w3.org/Graphics/SVG/1.1/DTD/svg11.dtd"><svg t="1621910695171" class="icon" viewBox="0 0 1024 1024" version="1.1" xmlns="http://www.w3.org/2000/svg" p-id="2364" xmlns:xlink="http://www.w3.org/1999/xlink" width="200" height="200"><defs><style type="text/css"></style></defs><path d="M736 544h-448c-19.2 0-32-12.8-32-32s12.8-32 32-32h448c19.2 0 32 12.8 32 32s-12.8 32-32 32zM736 320h-448c-19.2 0-32-12.8-32-32s12.8-32 32-32h448c19.2 0 32 12.8 32 32s-12.8 32-32 32zM736 768h-448c-19.2 0-32-12.8-32-32s12.8-32 32-32h448c19.2 0 32 12.8 32 32s-12.8 32-32 32z" fill="#bfcbd9" p-id="2365"></path><path d="M832 128c38.4 0 64 25.6 64 64v640c0 38.4-25.6 64-64 64H192c-38.4 0-64-25.6-64-64V192c0-38.4 25.6-64 64-64h640m0-64H192c-70.4 0-128 57.6-128 128v640c0 70.4 57.6 128 128 128h640c70.4 0 128-57.6 128-128V192c0-70.4-57.6-128-128-128z" fill="#bfcbd9" p-id="2366"></path></svg>