<?xml version="1.0" standalone="no"?><!DOCTYPE svg PUBLIC "-//W3C//DTD SVG 1.1//EN" "http://www.w3.org/Graphics/SVG/1.1/DTD/svg11.dtd"><svg t="1621927483137" class="icon" viewBox="0 0 1024 1024" version="1.1" xmlns="http://www.w3.org/2000/svg" p-id="5329" xmlns:xlink="http://www.w3.org/1999/xlink" width="200" height="200"><defs><style type="text/css"></style></defs><path d="M880.94 960H143.06C99.46 960 64 924.54 64 880.94V301.18c0-14.55 11.8-26.35 26.35-26.35h843.29c14.55 0 26.35 11.8 26.35 26.35v579.76c0.01 43.6-35.45 79.06-79.05 79.06zM116.71 327.53v553.41c0 14.53 11.82 26.35 26.35 26.35h737.88c14.53 0 26.35-11.82 26.35-26.35V327.53H116.71z" fill="#bfcbd9" p-id="5330"></path><path d="M880.94 960H143.06C99.46 960 64 924.54 64 880.94V406.59c0-14.55 11.8-26.35 26.35-26.35h843.29c14.55 0 26.35 11.8 26.35 26.35v474.35c0.01 43.6-35.45 79.06-79.05 79.06zM116.71 432.94v448c0 14.53 11.82 26.35 26.35 26.35h737.88c14.53 0 26.35-11.82 26.35-26.35v-448H116.71zM933.65 327.53H90.35c-9.14 0-17.62-4.73-22.42-12.5a26.344 26.344 0 0 1-1.16-25.64L172.19 78.57A26.37 26.37 0 0 1 195.76 64h632.47c9.99 0 19.11 5.64 23.57 14.57l105.41 210.82a26.37 26.37 0 0 1-1.16 25.64 26.314 26.314 0 0 1-22.4 12.5z m-800.66-52.71H891L811.94 116.7h-599.9l-79.05 158.12z" fill="#bfcbd9" p-id="5331"></path><path d="M670.12 643.76H353.88c-43.6 0-79.06-35.46-79.06-79.06s35.46-79.06 79.06-79.06h316.24c43.6 0 79.06 35.46 79.06 79.06s-35.47 79.06-79.06 79.06zM353.88 538.35c-14.53 0-26.35 11.82-26.35 26.35s11.82 26.35 26.35 26.35h316.24c14.53 0 26.35-11.82 26.35-26.35s-11.83-26.35-26.35-26.35H353.88z" fill="#bfcbd9" p-id="5332"></path></svg>