<?xml version="1.0" standalone="no"?><!DOCTYPE svg PUBLIC "-//W3C//DTD SVG 1.1//EN" "http://www.w3.org/Graphics/SVG/1.1/DTD/svg11.dtd"><svg t="1622172594508" class="icon" viewBox="0 0 1024 1024" version="1.1" xmlns="http://www.w3.org/2000/svg" p-id="3339" xmlns:xlink="http://www.w3.org/1999/xlink" width="200" height="200"><defs><style type="text/css"></style></defs><path d="M399.022 322.727 331.628 443.474 264.235 322.727 238.261 322.727 312.322 451.197 255.81 451.197 255.81 465.588 320.396 465.588 320.396 502.441 255.81 502.441 255.81 516.833 320.396 516.833 320.396 573.345 342.861 573.345 342.861 516.833 407.445 516.833 407.445 502.441 342.861 502.441 342.861 465.588 407.445 465.588 407.445 451.197 350.933 451.197 424.995 322.727Z" p-id="3340" fill="#bfcbd9"></path><path d="M735.289 333.65 609.486 333.65l0-94.345c0-7.783-6.368-14.152-14.152-14.152L125.969 225.153c-7.783 0-14.152 6.368-14.152 14.152L111.817 708.67c0 7.783 6.368 14.152 14.152 14.152l108.788 0c9.938 43.567 48.936 76.062 95.508 76.024 46.518-0.038 85.428-32.518 95.352-76.024l169.717 0c0.331 0 0.657-0.027 0.982-0.05l0 0.05 47.341 0c10.058 43.402 48.98 75.733 95.436 75.695 46.4-0.037 85.232-32.355 95.276-75.695l63.661 0c7.783 0 14.152-6.368 14.152-14.152L912.182 510.546C912.185 413.254 832.581 333.65 735.289 333.65zM330.242 770.543c-38.428 0.031-69.604-31.096-69.635-69.524-0.031-38.428 31.096-69.604 69.524-69.635 38.428-0.031 69.604 31.096 69.635 69.524C399.796 739.335 368.67 770.512 330.242 770.543zM581.182 680.367c0 7.783-6.368 14.152-14.152 14.152L427.852 694.519c-3.322-51.089-45.825-91.479-97.745-91.438-51.867 0.042-94.27 40.418-97.587 91.438l-78.248 0c-7.783 0-14.152-6.368-14.152-14.152L140.12 267.609c0-7.783 6.368-14.152 14.152-14.152l412.758 0c7.783 0 14.152 6.368 14.152 14.152L581.182 680.367zM739.069 770.214c-38.428 0.031-69.604-31.096-69.635-69.524-0.031-38.428 31.096-69.604 69.524-69.635 38.428-0.031 69.604 31.096 69.635 69.524C808.624 739.006 777.497 770.183 739.069 770.214zM883.879 680.367c0 7.783-6.368 14.152-14.152 14.152l-33.026 0c-3.161-51.243-45.736-91.809-97.766-91.767-51.978 0.042-94.452 40.592-97.608 91.767l-31.843 0L609.484 361.954l121.084 0c84.321 0 153.31 68.99 153.31 153.31L883.878 680.367z" p-id="3341" fill="#bfcbd9"></path><path d="M746.777 413.916l-77.834 0c-7.783 0-14.152 6.368-14.152 14.152l0 87.269c0 7.783 6.368 14.152 14.152 14.152l146.234 0c7.783 0 14.152-6.368 14.152-14.152l0-18.869C829.329 451.065 792.181 413.916 746.777 413.916zM793.95 501.185 690.171 501.185c-3.892 0-7.076-3.184-7.076-7.076l0-44.814c0-3.892 3.184-7.076 7.076-7.076l58.965 0c28.539 0 51.89 23.35 51.89 51.89C801.026 498.001 797.841 501.185 793.95 501.185z" p-id="3342" fill="#bfcbd9"></path></svg>