<?xml version="1.0" standalone="no"?><!DOCTYPE svg PUBLIC "-//W3C//DTD SVG 1.1//EN" "http://www.w3.org/Graphics/SVG/1.1/DTD/svg11.dtd"><svg t="1623031495195" class="icon" viewBox="0 0 1024 1024" version="1.1" xmlns="http://www.w3.org/2000/svg" p-id="1230" xmlns:xlink="http://www.w3.org/1999/xlink" width="200" height="200"><defs><style type="text/css"></style></defs><path d="M926.647887 126.197183h-288.450704c0-72.112676-57.690141-126.197183-126.197183-126.197183s-126.197183 57.690141-126.197183 126.197183h-288.450704c-18.028169 0-32.450704 14.422535-32.450705 32.450704v829.295775c0 18.028169 14.422535 32.450704 32.450705 32.450704h829.295774c18.028169 0 32.450704-14.422535 32.450705-32.450704v-829.295775c0-18.028169-14.422535-32.450704-32.450705-32.450704zM512 64.901408c36.056338 0 64.901408 28.84507 64.901408 64.901409s-28.84507 64.901408-64.901408 64.901408-64.901408-28.84507-64.901408-64.901408 28.84507-64.901408 64.901408-64.901409z m382.197183 894.197184H126.197183V191.098592H252.394366V288.450704c0 18.028169 14.422535 32.450704 32.450704 32.450704h447.098592c18.028169 0 32.450704-14.422535 32.450704-32.450704V191.098592h126.197183v768z" p-id="1231"></path><path d="M630.985915 634.591549c18.028169 0 28.84507-14.422535 28.845071-28.84507s-14.422535-28.84507-28.845071-28.845071h-64.901408l90.140845-133.40845c10.816901-14.422535 7.211268-32.450704-7.211267-43.267606-14.422535-10.816901-32.450704-7.211268-43.267606 7.211268l-97.352113 144.225352-97.352112-144.225352c-10.816901-14.422535-28.84507-18.028169-43.267606-7.211268-14.422535 10.816901-18.028169 28.84507-7.211268 43.267606l90.140845 133.40845h-64.901408c-18.028169 0-28.84507 14.422535-28.845071 28.845071s14.422535 28.84507 28.845071 28.84507h90.140845v61.295775h-90.140845c-18.028169 0-28.84507 14.422535-28.845071 28.84507s14.422535 28.84507 28.845071 28.845071h90.140845v90.140845c0 18.028169 14.422535 28.84507 28.84507 28.84507 18.028169 0 28.84507-14.422535 28.845071-28.84507V757.183099h90.140845c18.028169 0 28.84507-14.422535 28.84507-28.845071s-14.422535-28.84507-28.84507-28.84507H540.84507v-61.295775h90.140845v-3.605634z" p-id="1232"></path></svg>