<?xml version="1.0" standalone="no"?><!DOCTYPE svg PUBLIC "-//W3C//DTD SVG 1.1//EN" "http://www.w3.org/Graphics/SVG/1.1/DTD/svg11.dtd"><svg t="1623723627080" class="icon" viewBox="0 0 1024 1024" version="1.1" xmlns="http://www.w3.org/2000/svg" p-id="1881" xmlns:xlink="http://www.w3.org/1999/xlink" width="200" height="200"><defs><style type="text/css"></style></defs><path d="M768.8 648.128c62.432 0 113.28-54.4 113.28-121.28 0-66.912-50.848-121.312-113.28-121.312-62.464 0-113.344 54.4-113.344 121.312 0 66.88 50.848 121.28 113.344 121.28z m-13.184 177.12l104.48-148.32a367.04 367.04 0 0 0-90.848-11.84c-2.464 0-66.624-5.088-133.184 25.376 0 0-8.416 0.864-24.992 26.464-25.344 41.216-64.256 101.376-75.68 121.376-8.064 13.152-28.32 39.552-15.136 67.328 14.496 27.616 26.848 48.512 31.68 52.096h62.656c-1.28-47.488 42.784-125.44 141.024-132.48z m246.944 13.728c-19.232-33.056-62.08-100.192-65.504-106.176-4.512-7.904-18.592-38.144-44.96-46.368-2.848-0.8-6.432-2.016-10.816-3.424l-100.032 142.112c95.488 5.76 142.784 80.288 142.784 132.48l57.28 0.16s6.048 0.608 36.032-53.664c11.136-28.544-1.024-40.864-14.784-65.12z" p-id="1882"></path><path d="M768.736 860.384c-65.984 0-119.392 42.688-119.392 97.344h238.784c0-54.656-53.44-97.344-119.392-97.344zM932.64 66.272H90.24A88.064 88.064 0 0 0 2.272 154.176V839.68a87.936 87.936 0 0 0 87.968 87.744h372.608a32.416 32.416 0 0 0 0-64.8H90.24a23.04 23.04 0 0 1-23.2-22.976V303.072H955.84v401.312a32.352 32.352 0 1 0 64.768 0V154.208a88.096 88.096 0 0 0-87.968-87.936zM67.04 244.384V154.208c0-12.736 10.4-23.136 23.136-23.136H303.68c0 0.256-0.096 0.512-0.096 0.736v43.2c0 7.552 2.976 14.752 8.32 20.032a28.288 28.288 0 0 0 48.416-20.16V131.744c0-0.224-0.128-0.48-0.128-0.736h305.824c0 0.256-0.096 0.512-0.096 0.736v43.2a28.48 28.48 0 0 0 28.384 28.384 28.32 28.32 0 0 0 28.384-28.384v-43.2c0-0.224-0.128-0.48-0.128-0.736h210.144c12.736 0 23.232 10.4 23.232 23.168v90.208H67.04z" p-id="1883"></path><path d="M150.432 691.712h22.176v-114.176h-16.224v-42.88h16.224v-86.816h-18.944v-42.464h80.32v42.464H215.04v86.816h15.776v42.88H215.04v114.176h22.112v42.816h-86.72v-42.816M276.96 632.832l0.032-149.088 26.848-32.704v138.88l-26.88 42.912M309.632 717.856l24.032-47.552V393.92h32.416v295.392l-65.408 50.304 8.96-21.76M407.52 691.712h22.112v-114.176h-15.776v-42.88h15.776v-86.816h-18.944v-42.464h80.352v42.464h-18.592v86.816h15.808v42.88h-15.808v114.176h21.792v42.816h-86.72v-42.816" p-id="1884"></path><path d="M468.992 426.752a21.216 21.216 0 1 0 42.432-0.064 21.216 21.216 0 0 0-42.432 0.064z m-78.4-0.064a21.248 21.248 0 1 0 42.528 0 21.248 21.248 0 0 0-42.528 0z m-56.8-32.544a16.096 16.096 0 1 0 32.192-0.064 16.096 16.096 0 0 0-32.192 0.064z m133.44 162.048a21.376 21.376 0 1 0 42.752 0 21.376 21.376 0 0 0-42.752 0z m-74.592 0a21.408 21.408 0 1 0 42.816-0.064 21.408 21.408 0 0 0-42.816 0.064z m80.352 156.928a21.44 21.44 0 1 0 42.848 0 21.504 21.504 0 0 0-10.72-18.592 21.792 21.792 0 0 0-21.408 0 21.568 21.568 0 0 0-10.72 18.592z m-86.784 0a21.44 21.44 0 1 0 42.88 0 21.44 21.44 0 0 0-42.88 0z m-257.184 0a21.44 21.44 0 1 0 42.88 0.096 21.44 21.44 0 0 0-42.88-0.096z m85.504 0a21.44 21.44 0 1 0 42.944 0.064 21.44 21.44 0 0 0-42.944-0.064z m-5.632-156.928a21.44 21.44 0 1 0 42.88 0 21.44 21.44 0 0 0-42.88 0z m4.288-129.504l0 0z m-77.28 129.504a21.44 21.44 0 1 0 42.88 0 21.44 21.44 0 0 0-42.88 0z m-2.848-129.504a21.312 21.312 0 1 0 42.624 0.064 21.312 21.312 0 0 0-42.624-0.064z" p-id="1885"></path></svg>