<?xml version="1.0" standalone="no"?><!DOCTYPE svg PUBLIC "-//W3C//DTD SVG 1.1//EN" "http://www.w3.org/Graphics/SVG/1.1/DTD/svg11.dtd"><svg t="1622192811118" class="icon" viewBox="0 0 1024 1024" version="1.1" xmlns="http://www.w3.org/2000/svg" p-id="16756" xmlns:xlink="http://www.w3.org/1999/xlink" width="200" height="200"><defs><style type="text/css"></style></defs><path d="M560 975.7h-11l-4.1-1.8c-3.8-1.7-94.1-42.1-185.9-108.2-54.5-39.2-98-79.2-129.5-119.1-40.8-51.7-61.4-103.4-61.4-153.8V197l16.9-3.3c0.7-0.1 72.1-14.3 151.9-38.9C440 123 510.1 88.7 539.5 55.5L554.2 39l15.7 15.6c80.8 80.4 352.9 138.6 355.6 139.2l16.6 3.5v395.6c0 50.4-20.7 102.2-61.6 153.9-31.5 39.8-75.2 79.9-129.9 119.1-92.1 66-182.7 106.5-186.5 108.1l-4.1 1.7z m-12.9-40zM210 231.1v361.7c0 94.3 94.1 181.8 173 238.6 73.6 53 148.3 89.8 171.6 100.8 23.4-11 98.3-47.8 172.2-100.9 79.2-56.8 173.5-144.4 173.5-238.6V230.9c-59-13.5-256.2-62.7-344.4-133-39.3 34.2-108.7 66.7-207 97-59.2 18.2-112.7 30.6-138.9 36.2z" fill="#bfcbd9" p-id="16757"></path><path d="M459.5 664.7L351.2 556.4c-7.8-7.8-7.8-20.5 0-28.3l5.8-5.8c7.8-7.8 20.5-7.8 28.3 0l108.2 108.2c7.8 7.8 7.8 20.5 0 28.3l-5.8 5.8c-7.8 7.9-20.4 7.9-28.2 0.1z" fill="#bfcbd9" p-id="16758"></path><path d="M767.4 385.3L488.5 664.2c-7.8 7.8-20.5 7.8-28.3 0l-5.8-5.8c-7.8-7.8-7.8-20.5 0-28.3l278.9-278.9c7.8-7.8 20.5-7.8 28.3 0l5.8 5.8c7.8 7.8 7.8 20.5 0 28.3z" fill="#bfcbd9" p-id="16759"></path></svg>