<?xml version="1.0" standalone="no"?><!DOCTYPE svg PUBLIC "-//W3C//DTD SVG 1.1//EN" "http://www.w3.org/Graphics/SVG/1.1/DTD/svg11.dtd"><svg t="1622107458523" class="icon" viewBox="0 0 1024 1024" version="1.1" xmlns="http://www.w3.org/2000/svg" p-id="2358" xmlns:xlink="http://www.w3.org/1999/xlink" width="200" height="200"><defs><style type="text/css"></style></defs><path d="M747.140741 965.688889H274.014815c-41.813333 0-75.851852-34.038519-75.851852-75.851852v-757.57037c0-41.813333 34.038519-75.851852 75.851852-75.851852h473.125926c41.813333 0 75.851852 34.038519 75.851852 75.851852v757.665185c0 41.718519-34.038519 75.757037-75.851852 75.757037z m-473.125926-852.385185c-10.42963 0-18.962963 8.533333-18.962963 18.962963v757.665185c0 10.42963 8.533333 18.962963 18.962963 18.962963h473.125926c10.42963 0 18.962963-8.533333 18.962963-18.962963V132.266667c0-10.42963-8.533333-18.962963-18.962963-18.962963H274.014815z" p-id="2359" fill="#bfcbd9"></path><path d="M789.428148 791.22963H231.727407c-15.739259 0-28.444444-12.705185-28.444444-28.444445s12.705185-28.444444 28.444444-28.444444h557.795556c15.739259 0 28.444444 12.705185 28.444444 28.444444s-12.8 28.444444-28.539259 28.444445zM584.533333 210.678519h-147.911111c-15.739259 0-28.444444-12.705185-28.444444-28.444445s12.705185-28.444444 28.444444-28.444444h148.005926c15.739259 0 28.444444 12.705185 28.444445 28.444444s-12.8 28.444444-28.53926 28.444445z" p-id="2360" fill="#bfcbd9"></path><path d="M510.577778 847.54963m-18.962963 0a18.962963 18.962963 0 1 0 37.925926 0 18.962963 18.962963 0 1 0-37.925926 0Z" p-id="2361" fill="#bfcbd9"></path><path d="M510.577778 880.734815c-7.300741 0-14.696296-2.37037-20.859259-7.395556-14.222222-11.472593-16.402963-32.426667-4.930371-46.648889 11.472593-14.222222 32.426667-16.402963 46.648889-4.93037 6.921481 5.594074 11.188148 13.463704 12.136296 22.281481s-1.611852 17.445926-7.205926 24.367408c-6.542222 8.059259-16.118519 12.325926-25.789629 12.325926z m0-37.925926c-1.422222 0-2.74963 0.568889-3.697778 1.801481-1.611852 1.991111-1.327407 5.025185 0.663704 6.637037 1.991111 1.611852 5.025185 1.327407 6.637037-0.663703 1.042963-1.327407 1.137778-2.74963 1.042963-3.508148s-0.379259-2.085926-1.706667-3.223704c-0.853333-0.758519-1.896296-1.042963-2.939259-1.042963zM323.223704 382.388148h48.26074c10.619259 0 19.437037 0.948148 26.548149 2.74963s12.8 4.645926 17.066666 8.533333 7.300741 8.817778 9.197037 14.885926c1.801481 6.068148 2.74963 13.368889 2.74963 21.902222 0 9.197037-1.042963 16.971852-3.034074 23.324445s-5.30963 11.472593-9.765926 15.36c-4.456296 3.982222-10.24 6.731852-17.351111 8.438518-7.016296 1.706667-15.54963 2.56-25.410371 2.56h-17.351111v43.614815h-30.909629V382.388148z m44.183703 72.912593c5.30963 0 9.671111-0.379259 13.274074-1.137778 3.508148-0.758519 6.447407-2.085926 8.628149-3.982222 2.275556-1.896296 3.792593-4.361481 4.74074-7.395556s1.422222-6.921481 1.422223-11.662222c0-4.456296-0.474074-8.248889-1.422223-11.377778-0.948148-3.128889-2.56-5.594074-4.74074-7.49037-2.275556-1.896296-5.12-3.223704-8.722963-4.077037-3.602963-0.853333-7.964444-1.232593-13.17926-1.232593h-13.274074v48.450371h13.274074zM500.811852 382.388148c10.334815 0 19.721481 0.948148 28.16 2.74963 8.438519 1.801481 15.739259 5.30963 21.807407 10.524444 6.068148 5.12 10.714074 12.325926 13.937778 21.617778 3.223704 9.197037 4.93037 21.143704 4.93037 35.84 0 13.748148-1.611852 25.125926-4.93037 34.133333-3.223704 9.007407-7.86963 16.213333-13.937778 21.712593-6.068148 5.404444-13.274074 9.291852-21.807407 11.472593-8.533333 2.275556-17.92 3.318519-28.16 3.318518h-48.450371v-141.274074h48.450371z m-1.611852 114.820741c6.542222 0 12.136296-0.663704 16.971852-1.991111 4.835556-1.327407 8.817778-3.697778 12.041481-7.111111 3.223704-3.413333 5.594074-7.964444 7.111111-13.653334 1.517037-5.688889 2.37037-12.8 2.370371-21.428148 0-9.102222-0.853333-16.497778-2.465185-22.281481-1.611852-5.783704-4.077037-10.334815-7.205926-13.653334-3.223704-3.318519-7.205926-5.594074-12.041482-6.826666-4.835556-1.232593-10.42963-1.801481-16.782222-1.801482h-15.928889v88.746667h15.928889zM680.201481 488.675556h-57.457777L610.607407 523.662222h-32.237037l52.717037-141.274074h41.528889l52.337778 141.274074H692.148148l-11.946667-34.986666z m-8.912592-25.694815l-18.299259-53.570371h-2.465186l-18.773333 53.570371H671.288889z" p-id="2362" fill="#bfcbd9"></path></svg>