<?xml version="1.0" standalone="no"?><!DOCTYPE svg PUBLIC "-//W3C//DTD SVG 1.1//EN" "http://www.w3.org/Graphics/SVG/1.1/DTD/svg11.dtd"><svg t="1622258058386" class="icon" viewBox="0 0 1024 1024" version="1.1" xmlns="http://www.w3.org/2000/svg" p-id="1288" width="200" height="200" xmlns:xlink="http://www.w3.org/1999/xlink"><defs><style type="text/css"></style></defs><path d="M332.8 602.041379h317.793103v141.24138h-317.793103z" fill="#ffffff" p-id="1289"></path><path d="M471.746207 1002.284138c-259.177931 0-365.108966-145.302069-369.69931-151.657931l-8.827587-12.358621 15.713104-331.740689 1.412414-4.766897c28.424828-101.870345 124.998621-197.208276 179.023448-244.347586-65.50069-80.86069-73.798621-148.833103-74.504828-157.307586L211.862069 69.208276l28.071724-13.241379C370.582069-5.12 466.449655 29.131034 512 55.084138c45.550345-25.953103 141.417931-60.204138 271.889655 0.882759l28.248276 13.241379-3.001379 30.896552c-0.882759 8.474483-9.18069 76.270345-74.504828 157.307586 54.024828 46.962759 150.598621 142.477241 179.023448 244.347586l1.412414 4.766897 15.713104 331.740689-8.827587 12.358621c-4.590345 6.532414-114.935172 157.66069-386.11862 151.481379-15.889655-0.353103-31.602759-0.353103-47.492414 0-5.649655 0.176552-11.122759 0.176552-16.595862 0.176552zM183.084138 810.01931c27.188966 29.131034 118.466207 108.226207 303.13931 103.812414 17.125517-0.353103 34.427586-0.353103 51.553104 0 184.32 4.590345 275.597241-74.504828 303.13931-103.812414l-13.594483-289.191724c-33.897931-110.521379-181.318621-222.102069-182.907586-223.337931l-40.430345-30.366896 35.663449-36.016552c42.725517-43.078621 63.382069-82.802759 73.092413-108.755862-108.755862-36.016552-170.372414 18.008276-171.07862 18.714483L512 167.724138l-29.66069-26.65931c-2.471724-2.118621-64.441379-53.671724-171.07862-18.537931 9.710345 25.953103 30.366897 65.677241 73.092413 108.755862l35.663449 36.016551-40.606897 30.366897c-1.588966 1.05931-149.009655 112.816552-182.907586 223.337931l-13.417931 289.015172z" fill="#ffffff" p-id="1290"></path></svg>