<?xml version="1.0" standalone="no"?><!DOCTYPE svg PUBLIC "-//W3C//DTD SVG 1.1//EN" "http://www.w3.org/Graphics/SVG/1.1/DTD/svg11.dtd"><svg t="1621849948322" class="icon" viewBox="0 0 1024 1024" version="1.1" xmlns="http://www.w3.org/2000/svg" p-id="2386" xmlns:xlink="http://www.w3.org/1999/xlink" width="200" height="200"><defs><style type="text/css"></style></defs><path d="M262.67 867.68c-68.94 0-125.03-56.09-125.03-125.03s56.09-125.03 125.03-125.03S387.7 673.71 387.7 742.65s-56.09 125.03-125.03 125.03z m0-187.54c-34.47 0-62.51 28.04-62.51 62.51s28.04 62.51 62.51 62.51 62.51-28.04 62.51-62.51-28.04-62.51-62.51-62.51z" p-id="2387" fill="#ffffff"></path><path d="M564.28 727.39H344.1c-11.21 0-21.56-6-27.13-15.73-11.13-19.44-31.94-31.52-54.31-31.52s-43.17 12.08-54.31 31.52a31.258 31.258 0 0 1-27.13 15.73h-23.29c-51.71 0-93.77-42.07-93.77-93.77V289.79c0-51.71 42.07-93.77 93.77-93.77h343.83c51.71 0 93.77 42.07 93.77 93.77v406.34c0.01 17.26-13.99 31.26-31.25 31.26z m-203.73-62.52h172.48V289.79c0-17.24-14.02-31.26-31.26-31.26H157.94c-17.24 0-31.26 14.02-31.26 31.26v343.83c0 17.24 14.02 31.26 31.26 31.26h6.84c23.52-29.52 59.55-47.25 97.88-47.25s74.37 17.72 97.89 47.24z" p-id="2388" fill="#ffffff"></path><path d="M652.3 867.68c-68.94 0-125.03-56.09-125.03-125.03s56.09-125.03 125.03-125.03 125.03 56.09 125.03 125.03-56.09 125.03-125.03 125.03z m0-187.54c-34.47 0-62.51 28.04-62.51 62.51s28.04 62.51 62.51 62.51 62.51-28.04 62.51-62.51-28.04-62.51-62.51-62.51z" p-id="2389" fill="#ffffff"></path><path d="M864.81 727.39H733.73c-11.21 0-21.56-6-27.13-15.73-11.13-19.44-31.94-31.52-54.31-31.52s-43.17 12.08-54.31 31.52a31.258 31.258 0 0 1-27.13 15.73h-6.3c-17.26 0-31.26-13.99-31.26-31.26V313.18c0-17.26 13.99-31.26 31.26-31.26H795c42.51 0 80 28.65 91.16 69.67l69.79 256.52c7.79 28.64 1.93 58.59-16.1 82.17-18.01 23.58-45.36 37.11-75.04 37.11z m-114.63-62.52h114.63c10.04 0 19.29-4.57 25.39-12.55 6.1-7.98 8.08-18.11 5.45-27.8L825.85 368c-3.78-13.88-16.46-23.57-30.84-23.57H595.83v286.72c17.25-8.74 36.55-13.53 56.47-13.53 38.33 0 74.36 17.73 97.88 47.25z" p-id="2390" fill="#ffffff"></path><path d="M564.57 447.81h324.45v62.51H564.57z" p-id="2391" fill="#ffffff"></path></svg>